<svg width="144" height="35" viewBox="0 0 144 35" fill="none" xmlns="http://www.w3.org/2000/svg">
<path d="M16.6157 24.5702L10.6536 28.1722C10.4779 28.2738 10.2649 28.2476 10.1031 28.2416C9.4571 28.2155 9.48042 27.6737 9.48449 27.5614L9.77097 19.7222C9.77503 19.5894 9.79128 19.0684 10.437 19.0946C10.5987 19.1006 10.8127 19.0917 10.9803 19.205L16.6627 23.274C17.1284 23.5903 17.0335 23.9376 17.0335 23.9376C17.0335 23.9376 17.104 24.2916 16.6157 24.5702ZM20.22 22.9848C18.8504 16.4256 21.3638 9.92644 26.1504 6.10414C25.5648 4.9124 24.7763 3.89306 23.7783 3.05202C21.363 1.01664 17.8278 -8.7738e-05 13.1725 -8.7738e-05C10.415 -8.7738e-05 8.18039 0.317032 6.46898 0.950039C4.75745 1.58442 3.06098 2.77095 1.37893 4.50894L7.51032 10.9214C8.3121 10.0827 9.0701 9.49955 9.78381 9.1727C10.4978 8.84571 11.461 8.68139 12.6738 8.68139C14.4147 8.68139 15.6612 8.99399 16.4145 9.61713C17.1671 10.2416 17.544 11.3305 17.544 12.885V13.7435H11.0017C8.53724 13.7435 6.47868 14.1939 4.82625 15.0938C3.17303 15.9938 1.95556 17.1795 1.17344 18.6523C0.391321 20.1247 0 21.7612 0 23.5612C0 26.8546 0.948292 29.4928 2.84566 31.4768C4.76256 33.4808 7.34415 34.4834 10.591 34.4834C12.253 34.4834 13.6024 34.2426 14.6394 33.7619C15.6758 33.2814 16.7322 32.499 17.8077 31.4148V34.1761H27.4012V33.625C23.8609 31.3207 21.1794 27.5823 20.22 22.9848Z" fill="#2FD1C8"/>
<path d="M50.5806 26.1497C50.4211 26.0312 50.2221 25.9907 50.0319 26.0335L50.0382 26.0346C42.155 27.8547 34.356 22.6492 32.6145 14.4071C31.7317 10.2275 32.567 5.85167 34.9164 2.34183C35.1367 2.0169 35.0646 1.56944 34.7521 1.34044C34.5936 1.22203 34.3945 1.18079 34.2029 1.22382C25.5675 3.19561 20.0934 12.1147 21.9791 21.1455C23.8643 30.1787 32.3944 35.8994 41.0328 33.9305C44.9703 33.0312 48.4378 30.6106 50.7455 27.1523C50.9646 26.8299 50.8915 26.3814 50.5806 26.1497Z" fill="#2FD1C8"/>
<path d="M43.2546 5.18236L44.756 9.60725L49.2423 9.68084C49.7458 9.69071 49.9591 10.3572 49.5577 10.6807L45.9989 13.5407L47.3173 18.03C47.4687 18.532 46.9229 18.9487 46.5072 18.6505L42.8069 15.9935L39.1298 18.6927C38.7181 18.9955 38.1696 18.5841 38.3139 18.0792L39.587 13.5765L35.9964 10.7579C35.5962 10.4399 35.801 9.768 36.3032 9.75334L40.7898 9.62945L42.2452 5.1888C42.4119 4.69024 43.0853 4.68503 43.2546 5.18236Z" fill="#2FD1C8"/>
<path d="M71.0224 19.0226H74.7885L67.8544 3.51487H64.3097L57.3977 19.0226H61.0753L62.4488 15.6995H69.6488L71.0224 19.0226ZM63.6008 12.9746L66.0599 7.03733L68.519 12.9746H63.6008Z" fill="#0D3B39"/>
<path d="M86.6599 15.5666C85.7516 16.0539 84.8432 16.2312 83.8685 16.2312C80.8999 16.2312 78.8396 14.1709 78.8396 11.2687C78.8396 8.32225 80.8999 6.30625 83.9128 6.30625C85.4857 6.30625 86.7928 6.8601 87.9226 8.05641L90.2266 5.92964C88.7202 4.17949 86.4605 3.24902 83.7356 3.24902C78.7952 3.24902 75.2063 6.59425 75.2063 11.2687C75.2063 15.9432 78.7952 19.2884 83.6691 19.2884C85.8845 19.2884 88.2328 18.6016 89.9386 17.3167V11.025H86.6599V15.5666Z" fill="#0D3B39"/>
<path d="M100.162 19.2884C104.571 19.2884 107.185 16.7629 107.185 12.1992V3.51487H103.64V12.0663C103.64 15.0127 102.378 16.2312 100.184 16.2312C98.0134 16.2312 96.7284 15.0127 96.7284 12.0663V3.51487H93.1395V12.1992C93.1395 16.7629 95.7537 19.2884 100.162 19.2884Z" fill="#0D3B39"/>
<path d="M121.41 3.51487V12.9303L113.7 3.51487H110.732V19.0226H114.276V9.60718L122.008 19.0226H124.954V3.51487H121.41Z" fill="#0D3B39"/>
<path d="M140.21 19.0226H143.976L137.042 3.51487H133.497L126.585 19.0226H130.263L131.636 15.6995H138.836L140.21 19.0226ZM132.788 12.9746L135.247 7.03733L137.706 12.9746H132.788Z" fill="#0D3B39"/>
<path d="M62.6164 32.8685C64.1641 32.8685 65.4988 32.3646 66.4076 31.4099L65.4846 30.5745C64.7179 31.3303 63.7807 31.6883 62.6874 31.6883C60.4439 31.6883 58.7826 30.1767 58.7826 28.1213C58.7826 26.0659 60.4439 24.5542 62.6874 24.5542C63.7807 24.5542 64.7179 24.899 65.4846 25.6548L66.4076 24.8194C65.4988 23.8647 64.1641 23.374 62.6306 23.374C59.6061 23.374 57.3626 25.3764 57.3626 28.1213C57.3626 30.8662 59.6061 32.8685 62.6164 32.8685Z" fill="#0D3B39"/>
<path d="M77.9659 32.8685C80.9904 32.8685 83.2339 30.8529 83.2339 28.1213C83.2339 25.3896 80.9904 23.374 77.9659 23.374C74.9131 23.374 72.6696 25.4029 72.6696 28.1213C72.6696 30.8397 74.9131 32.8685 77.9659 32.8685ZM77.9659 31.6883C75.7366 31.6883 74.0895 30.1767 74.0895 28.1213C74.0895 26.0659 75.7366 24.5542 77.9659 24.5542C80.1668 24.5542 81.8139 26.0659 81.8139 28.1213C81.8139 30.1767 80.1668 31.6883 77.9659 31.6883Z" fill="#0D3B39"/>
<path d="M94.7757 32.8685C97.4026 32.8685 98.9787 31.4497 98.9787 28.7578V23.4801H97.6013V28.7047C97.6013 30.7601 96.579 31.6883 94.7899 31.6883C93.0008 31.6883 91.9926 30.7601 91.9926 28.7047V23.4801H90.5727V28.7578C90.5727 31.4497 92.163 32.8685 94.7757 32.8685Z" fill="#0D3B39"/>
<path d="M115.336 32.7624L112.979 29.6462C114.371 29.1821 115.166 28.1478 115.166 26.7157C115.166 24.7001 113.604 23.4801 111.02 23.4801H107.143V32.7624H108.563V29.938H111.02C111.233 29.938 111.446 29.9247 111.645 29.9114L113.789 32.7624H115.336ZM110.977 28.8108H108.563V24.6338H110.977C112.795 24.6338 113.746 25.3896 113.746 26.7157C113.746 28.0417 112.795 28.8108 110.977 28.8108Z" fill="#0D3B39"/>
<path d="M125.611 32.8685C128.237 32.8685 129.459 31.6486 129.459 30.2297C129.459 26.8217 123.438 28.2406 123.438 25.9731C123.438 25.1642 124.162 24.5012 125.852 24.5012C126.732 24.5012 127.712 24.7399 128.578 25.257L129.047 24.1962C128.223 23.6658 127.016 23.374 125.852 23.374C123.239 23.374 122.047 24.594 122.047 26.0261C122.047 29.4738 128.067 28.0417 128.067 30.3093C128.067 31.1181 127.329 31.7414 125.611 31.7414C124.333 31.7414 123.069 31.2905 122.331 30.6673L121.805 31.7016C122.6 32.3912 124.091 32.8685 125.611 32.8685Z" fill="#0D3B39"/>
<path d="M138.207 31.6088V28.6119H143.191V27.4848H138.207V24.6338H143.801V23.4801H136.787V32.7624H144V31.6088H138.207Z" fill="#0D3B39"/>
</svg>
